<?xml version="1.0" standalone="no"?>
<!DOCTYPE svg PUBLIC "-//W3C//DTD SVG 20010904//EN"
 "http://www.w3.org/TR/2001/REC-SVG-20010904/DTD/svg10.dtd">
<svg version="1.0" xmlns="http://www.w3.org/2000/svg"
 width="256.000000pt" height="256.000000pt" viewBox="0 0 256.000000 256.000000"
 preserveAspectRatio="xMidYMid meet">
<metadata>
Created by potrace 1.14, written by Peter Selinger 2001-2017
</metadata>
<g transform="translate(0.000000,256.000000) scale(0.100000,-0.100000)"
fill="#000000" stroke="none">
<path d="M1040 2312 c-32 -2 -115 -15 -183 -27 -56 -11 -195 -67 -261 -105
-38 -22 -72 -40 -76 -40 -5 0 -10 -3 -12 -7 -1 -5 -25 -26 -53 -48 -112 -89
-216 -216 -279 -340 -32 -65 -83 -217 -91 -275 -4 -24 -9 -48 -11 -52 -7 -11
-6 -217 1 -263 56 -365 270 -653 597 -804 72 -33 106 -46 153 -56 6 -2 28 -7
50 -13 51 -13 133 -25 164 -23 14 0 41 -13 65 -33 120 -98 291 -167 450 -182
82 -8 69 -8 166 1 41 3 94 13 118 21 23 7 47 14 52 14 16 0 133 56 181 87 116
73 222 183 276 284 13 23 27 47 32 53 14 18 59 160 71 223 39 218 -13 442
-145 628 -40 57 -81 99 -168 176 -29 26 -48 58 -77 132 -22 55 -49 112 -60
127 -11 15 -20 31 -20 34 0 16 -90 127 -155 191 -60 60 -107 96 -230 173 -42
26 -139 66 -205 85 -96 27 -264 46 -350 39z m220 -408 c36 -9 70 -20 75 -24 6
-4 21 -11 35 -15 36 -11 149 -88 188 -128 l33 -34 -65 -7 c-175 -18 -374 -119
-496 -253 -76 -83 -91 -103 -130 -177 -84 -155 -116 -325 -95 -498 3 -27 3
-48 0 -48 -20 0 -105 61 -159 115 -249 245 -251 646 -5 895 164 165 393 229
619 174z"/>
</g>
</svg>
